<?xml version="1.0" encoding="UTF-8"?>
<svg width="200px" height="200px" viewBox="0 0 200 200" version="1.1" xmlns="http://www.w3.org/2000/svg" xmlns:xlink="http://www.w3.org/1999/xlink">
    <title>logo</title>
    <defs>
        <polygon id="path-1" points="0 0.4945 39.1916 0.4945 39.1916 44.0515 0 44.0515"></polygon>
    </defs>
    <g id="logo" stroke="none" stroke-width="1" fill="none" fill-rule="evenodd">
        <g id="编组" transform="translate(55.000000, 75.000000)">
            <polygon id="Fill-1" fill="#888889" points="47.1104 37.1592 47.1104 14.2602 53.2264 14.2602 53.2264 22.8012 60.4984 22.8012 60.4984 14.2602 66.8024 14.2602 66.8024 37.1592 60.4984 37.1592 60.4984 25.2242 58.5424 28.2082 53.2264 28.2082 53.2264 37.1592"></polygon>
            <g transform="translate(0.000000, 0.454100)">
                <path d="M83.5645,21.3057 C83.5645,20.1327 82.9065,19.4617 81.5855,19.2857 L74.9865,19.2857 L74.9865,23.7267 L81.7005,23.7267 C82.9455,23.3027 83.5645,22.4947 83.5645,21.3057 L83.5645,21.3057 Z M68.8705,36.7047 L68.8705,13.8057 L83.5855,13.8057 C84.7685,14.0127 85.7815,14.3967 86.6195,14.9507 C88.6615,16.2867 89.6835,18.3967 89.6835,21.2797 C89.6835,24.1617 88.6995,26.3267 86.7335,27.7787 C85.9145,28.3897 84.9295,28.8327 83.7855,29.0967 L77.0615,29.0967 L74.9865,25.9257 L74.9865,36.7047 L68.8705,36.7047 Z" id="Fill-2" fill="#888889"></path>
                <polygon id="Fill-4" fill="#888889" points="32.9063 36.7159 32.9063 19.2859 26.3033 19.2859 26.3033 13.8059 47.1583 13.8059 44.4633 19.2859 39.3243 19.2859 39.3243 36.7419"></polygon>
                <polygon id="Fill-6" fill="#FCD000" points="7.7002 50 19.0422 29.387 6.8872 25.237 32.2262 0.546 19.1072 22.786 31.0082 26.75"></polygon>
                <g transform="translate(0.000000, 3.000000)">
                    <mask id="mask-2" fill="white">
                        <use xlink:href="#path-1"></use>
                    </mask>
                    <g id="Clip-9"></g>
                    <path d="M4.6426,22.2715 C4.6426,12.8255 12.3286,5.1395 21.7796,5.1395 C21.8146,5.1395 21.8536,5.1415 21.8876,5.1415 L26.1876,0.9545 C24.7616,0.6595 23.2886,0.4945 21.7796,0.4945 C9.7696,0.4945 -0.0004,10.2665 -0.0004,22.2715 C-0.0004,29.6965 3.7346,36.2585 9.4196,40.1925 C10.1346,38.8935 10.9046,37.4915 11.6716,36.0995 C7.4136,32.9795 4.6426,27.9465 4.6426,22.2715 M21.7796,39.4095 C20.5506,39.4095 19.3576,39.2765 18.2026,39.0315 L14.4476,42.7765 C16.7386,43.5995 19.2056,44.0515 21.7796,44.0515 C28.8876,44.0515 35.2146,40.6235 39.1916,35.3345 L32.8496,35.3345 C29.8616,37.8725 25.9956,39.4095 21.7796,39.4095 M32.8496,9.2115 L39.1916,9.2115 C37.1136,6.4515 34.3926,4.2045 31.2586,2.6795 C30.5496,3.8835 29.7406,5.2565 28.8916,6.6925 C30.3266,7.3525 31.6606,8.2015 32.8496,9.2115" id="Fill-8" fill="#B4B5B5" mask="url(#mask-2)"></path>
                </g>
                <polygon id="Fill-10" fill="#F9BE00" points="7.7002 50 19.0422 29.387 6.8872 25.237 32.2262 0.546 19.1072 22.786 31.0082 26.75"></polygon>
            </g>
        </g>
    </g>
</svg>